<svg width="24" height="24" viewBox="0 0 24 24" fill="none" xmlns="http://www.w3.org/2000/svg">
<rect width="24" height="24" rx="12" transform="matrix(-1 0 0 1 24 0)" fill="#FF4100"/>
<path d="M10.59 11.9999L7.29 8.70994C7.19676 8.6167 7.1228 8.50601 7.07234 8.38419C7.02188 8.26237 6.99591 8.1318 6.99591 7.99994C6.99591 7.86808 7.02188 7.73751 7.07234 7.61569C7.1228 7.49387 7.19676 7.38318 7.29 7.28994C7.38324 7.1967 7.49393 7.12274 7.61575 7.07228C7.73757 7.02182 7.86814 6.99585 8 6.99585C8.13186 6.99585 8.26243 7.02182 8.38425 7.07228C8.50607 7.12274 8.61676 7.1967 8.71 7.28994L12.71 11.2899C12.8037 11.3829 12.8781 11.4935 12.9289 11.6154C12.9797 11.7372 13.0058 11.8679 13.0058 11.9999C13.0058 12.132 12.9797 12.2627 12.9289 12.3845C12.8781 12.5064 12.8037 12.617 12.71 12.7099L8.71 16.7099C8.61704 16.8037 8.50644 16.8781 8.38458 16.9288C8.26272 16.9796 8.13201 17.0057 8 17.0057C7.86799 17.0057 7.73728 16.9796 7.61542 16.9288C7.49356 16.8781 7.38296 16.8037 7.29 16.7099C7.19627 16.617 7.12188 16.5064 7.07111 16.3845C7.02034 16.2627 6.9942 16.132 6.9942 15.9999C6.9942 15.8679 7.02034 15.7372 7.07111 15.6154C7.12188 15.4935 7.19627 15.3829 7.29 15.2899L10.59 11.9999ZM16 6.99994C16.2652 6.99994 16.5196 7.1053 16.7071 7.29283C16.8946 7.48037 17 7.73472 17 7.99994V15.9999C17 16.2652 16.8946 16.5195 16.7071 16.707C16.5196 16.8946 16.2652 16.9999 16 16.9999C15.7348 16.9999 15.4804 16.8946 15.2929 16.707C15.1054 16.5195 15 16.2652 15 15.9999V7.99994C15 7.73472 15.1054 7.48037 15.2929 7.29283C15.4804 7.1053 15.7348 6.99994 16 6.99994Z" fill="white"/>
</svg>
