<svg width="20" height="20" viewBox="0 0 20 20" fill="none" xmlns="http://www.w3.org/2000/svg">
<path d="M8.09082 6.22635C8.1802 6.22635 8.26895 6.2051 8.35145 6.16323L12.4108 4.08073C12.6108 3.97823 12.7339 3.76823 12.7264 3.54135C12.7189 3.31448 12.5827 3.11323 12.3764 3.02385L8.38457 1.29635C8.20832 1.2201 8.0052 1.23698 7.84395 1.34323C7.68207 1.44823 7.58395 1.62823 7.5802 1.8226L7.55832 3.06385C4.45145 4.11385 2.39082 7.0451 2.50395 10.3457C2.59395 12.967 4.0927 15.3764 6.41645 16.6326C6.50332 16.6795 6.59645 16.7014 6.68832 16.7014C6.89457 16.7014 7.09395 16.5895 7.1977 16.3932C7.3477 16.1089 7.24207 15.7557 6.96082 15.6039C4.99895 14.5426 3.73332 12.5126 3.65707 10.3051C3.56645 7.6651 5.13207 5.3051 7.53645 4.3151L7.51332 5.63198C7.5102 5.83635 7.6127 6.02823 7.78457 6.13698C7.8777 6.19698 7.98395 6.22635 8.09082 6.22635ZM10.7877 3.60573L8.6852 4.68448L8.7202 2.71073L10.7877 3.60573ZM17.4958 9.8401C17.4121 7.40635 16.1308 5.16385 14.0696 3.84073C13.7983 3.6676 13.4433 3.74823 13.2727 4.02073C13.1027 4.2926 13.1821 4.65323 13.4508 4.82573C15.1914 5.9426 16.2733 7.83198 16.3433 9.8801C16.4277 12.3289 15.0771 14.5589 12.9233 15.6589L12.8896 14.3426C12.8833 14.1382 12.7727 13.952 12.5971 13.8507C12.4214 13.7501 12.2058 13.7489 12.0302 13.8495L8.06332 16.1007C7.8677 16.212 7.75395 16.427 7.7702 16.6532C7.78707 16.8789 7.93145 17.0745 8.14145 17.1551L12.2052 18.7126C12.2721 18.7376 12.3408 18.7501 12.4096 18.7501C12.5271 18.7501 12.6446 18.7132 12.7433 18.6426C12.9002 18.5301 12.9908 18.3457 12.9864 18.152L12.9552 16.9282C15.7908 15.7264 17.6021 12.9301 17.4958 9.8401ZM9.7052 16.5064L11.7602 15.3401L11.8108 17.3132L9.7052 16.5064Z" fill="#FF4100"/>
</svg>
