<svg width="20" height="20" viewBox="0 0 20 20" fill="none" xmlns="http://www.w3.org/2000/svg">
<path d="M10.7668 12.4999C10.7502 12.4487 10.7248 12.4008 10.6918 12.3583L10.5918 12.2333C10.5144 12.1552 10.4222 12.0932 10.3206 12.0509C10.2191 12.0085 10.1102 11.9868 10.0002 11.9868C9.89016 11.9868 9.78124 12.0085 9.67969 12.0509C9.57814 12.0932 9.48597 12.1552 9.4085 12.2333C9.36878 12.2694 9.33502 12.3116 9.3085 12.3583C9.27552 12.4008 9.25014 12.4487 9.2335 12.4999C9.20937 12.5501 9.19253 12.6034 9.1835 12.6583C9.17942 12.711 9.17942 12.7639 9.1835 12.8166C9.1806 12.9286 9.20341 13.0398 9.25017 13.1416C9.33497 13.3443 9.49636 13.5052 9.69924 13.5895C9.90212 13.6738 10.1301 13.6745 10.3335 13.5916C10.4348 13.5463 10.5277 13.4843 10.6085 13.4083C10.6835 13.3315 10.7429 13.2409 10.7835 13.1416C10.8273 13.0388 10.85 12.9283 10.8502 12.8166C10.8543 12.7639 10.8543 12.711 10.8502 12.6583C10.8307 12.6015 10.8026 12.5481 10.7668 12.4999ZM10.0002 6.13327C9.77915 6.13327 9.56719 6.22106 9.41091 6.37734C9.25463 6.53362 9.16683 6.74558 9.16683 6.9666V9.4666C9.16683 9.68761 9.25463 9.89957 9.41091 10.0559C9.56719 10.2121 9.77915 10.2999 10.0002 10.2999C10.2212 10.2999 10.4331 10.2121 10.5894 10.0559C10.7457 9.89957 10.8335 9.68761 10.8335 9.4666V6.9666C10.8335 6.74558 10.7457 6.53362 10.5894 6.37734C10.4331 6.22106 10.2212 6.13327 10.0002 6.13327ZM16.3585 3.0416C16.2617 2.96328 16.1486 2.90766 16.0274 2.87882C15.9063 2.84997 15.7802 2.84865 15.6585 2.87493C14.768 3.06155 13.8488 3.06393 12.9574 2.88192C12.0659 2.69991 11.2212 2.33736 10.4752 1.8166C10.3357 1.71983 10.1699 1.66797 10.0002 1.66797C9.83039 1.66797 9.66466 1.71983 9.52517 1.8166C8.77913 2.33736 7.9344 2.69991 7.04297 2.88192C6.15155 3.06393 5.2323 3.06155 4.34183 2.87493C4.22012 2.84865 4.09406 2.84997 3.97292 2.87882C3.85178 2.90766 3.73865 2.96328 3.64183 3.0416C3.54515 3.12003 3.46727 3.21913 3.41391 3.33161C3.36055 3.44409 3.33308 3.5671 3.3335 3.6916V9.89993C3.33276 11.0947 3.61748 12.2724 4.16395 13.3349C4.71041 14.3974 5.50282 15.314 6.47517 16.0083L9.51683 18.1749C9.65797 18.2754 9.82691 18.3294 10.0002 18.3294C10.1734 18.3294 10.3424 18.2754 10.4835 18.1749L13.5252 16.0083C14.4975 15.314 15.2899 14.3974 15.8364 13.3349C16.3829 12.2724 16.6676 11.0947 16.6668 9.89993V3.6916C16.6673 3.5671 16.6398 3.44409 16.5864 3.33161C16.5331 3.21913 16.4552 3.12003 16.3585 3.0416ZM15.0002 9.89993C15.0008 10.8289 14.7796 11.7446 14.3549 12.5708C13.9302 13.397 13.3143 14.1098 12.5585 14.6499L10.0002 16.4749L7.44183 14.6499C6.68603 14.1098 6.07015 13.397 5.64546 12.5708C5.22076 11.7446 4.99953 10.8289 5.00017 9.89993V4.64993C6.74719 4.79946 8.49687 4.39412 10.0002 3.4916C11.5035 4.39412 13.2531 4.79946 15.0002 4.64993V9.89993Z" fill="#FF4100"/>
</svg>
