<svg width="20" height="20" viewBox="0 0 20 20" fill="none" xmlns="http://www.w3.org/2000/svg">
<path d="M8.24756 13.4568C9.4205 13.3623 10.599 13.3623 11.772 13.4568L11.7827 13.4578C12.2559 13.4853 12.7276 13.5363 13.1958 13.6111L13.6636 13.6941C15.0279 13.9709 15.7279 14.3918 16.0044 14.9177C16.2208 15.351 16.2207 15.8662 16.0044 16.2996C15.725 16.8314 15.0505 17.2787 13.6577 17.5222L13.645 17.5242C13.0255 17.6491 12.3983 17.7304 11.7681 17.7673L11.7427 17.7693C11.1689 17.8325 10.5905 17.8337 9.97314 17.8337H8.89404C8.66607 17.8059 8.4428 17.7898 8.22412 17.7888C7.5955 17.7564 6.96981 17.6788 6.35205 17.5544L6.34814 17.5535L5.86865 17.447C4.8946 17.2008 4.33346 16.8464 4.06396 16.4265L4.00732 16.3289C3.8947 16.1134 3.83452 15.872 3.8335 15.6257V15.6228L3.84326 15.4382C3.86385 15.2555 3.91748 15.0783 4.00146 14.9158V14.9148C4.27204 14.3898 4.97446 13.9479 6.34424 13.6951L6.3501 13.6931C6.97248 13.571 7.60223 13.4928 8.23486 13.4578L8.24756 13.4568ZM10.0024 2.16675C12.1299 2.1668 13.8783 3.94433 13.8784 6.16675C13.8784 8.3893 12.13 10.1677 10.0024 10.1677C7.87483 10.1677 6.12646 8.38933 6.12646 6.16675C6.12662 3.9443 7.87493 2.16675 10.0024 2.16675Z" stroke="#FF4100"/>
</svg>
